<svg width="25" height="26" viewBox="0 0 25 26" fill="none" xmlns="http://www.w3.org/2000/svg">
<path fill-rule="evenodd" clip-rule="evenodd" d="M11.5867 2.34436C11.8543 2.15693 12.1731 2.0564 12.4999 2.0564C12.8266 2.0564 13.1454 2.15693 13.413 2.34436C13.677 2.52924 13.8786 2.78984 13.9912 3.0916L16.1361 8.49293L16.1425 8.50963C16.1445 8.51496 16.148 8.51961 16.1526 8.52299C16.1571 8.52638 16.1626 8.52836 16.1683 8.52869L16.1731 8.52897L21.9348 8.90008C23.4305 8.9972 23.9417 10.8695 22.8531 11.7744C22.8529 11.7745 22.8527 11.7747 22.8525 11.7749L18.4397 15.4554L18.4372 15.4576C18.4272 15.4658 18.4198 15.4766 18.4158 15.4889C18.4119 15.5008 18.4113 15.5135 18.4141 15.5257C18.4142 15.5261 18.4143 15.5264 18.4144 15.5267L19.839 21.1278C20.184 22.4894 18.7137 23.7156 17.4346 22.9088L17.4327 22.9076L12.5108 19.7826C12.5077 19.7806 12.5036 19.7793 12.4999 19.7793C12.4962 19.7793 12.4925 19.7803 12.4894 19.7823L12.4882 19.7831L7.90953 22.6826C7.90929 22.6827 7.90905 22.6829 7.90882 22.683C6.5057 23.5751 4.8851 22.2189 5.26814 20.7175C5.26808 20.7177 5.26821 20.7172 5.26814 20.7175L6.58536 15.5267C6.58543 15.5264 6.5855 15.5261 6.58557 15.5258C6.58843 15.5136 6.58787 15.5008 6.58394 15.4889C6.5799 15.4766 6.5725 15.4658 6.56257 15.4576L6.56001 15.4554L2.14721 11.7749C2.147 11.7747 2.14679 11.7745 2.14658 11.7743C1.05807 10.8694 1.56881 8.99722 3.06447 8.9001L8.83144 8.52867C8.83712 8.52834 8.84258 8.52638 8.84716 8.52299C8.85174 8.51961 8.85523 8.51496 8.85721 8.50963L8.86361 8.49293L11.0086 3.0916C11.1212 2.78984 11.3227 2.52924 11.5867 2.34436ZM13.3488 18.4638C13.3486 18.4637 13.3489 18.4639 13.3488 18.4638L18.2682 21.5873C18.268 21.5872 18.2684 21.5874 18.2682 21.5873C18.2771 21.5928 18.283 21.595 18.2845 21.5955C18.2866 21.5951 18.2933 21.5932 18.3026 21.5862C18.3145 21.5772 18.322 21.566 18.3254 21.5569C18.327 21.5528 18.328 21.5483 18.3283 21.5428C18.3286 21.5375 18.3285 21.5277 18.3246 21.5123C18.3246 21.5123 18.3246 21.5124 18.3246 21.5123L16.8978 15.903C16.8238 15.6048 16.8356 15.2917 16.9318 14.9998C17.0278 14.7085 17.204 14.4503 17.4401 14.2546C17.4405 14.2542 17.441 14.2538 17.4415 14.2534L21.8542 10.5728C21.8634 10.5653 21.8672 10.5598 21.8689 10.5572C21.8707 10.5543 21.8723 10.551 21.8735 10.5463C21.8763 10.5358 21.8772 10.5176 21.8707 10.4967C21.8643 10.4757 21.8546 10.4655 21.8518 10.4632C21.8509 10.4624 21.8506 10.4622 21.8502 10.4621C21.8501 10.4621 21.8456 10.4601 21.8343 10.4593C21.8342 10.4593 21.8344 10.4593 21.8343 10.4593L16.0775 10.0885C16.0766 10.0885 16.0757 10.0884 16.0747 10.0884C15.767 10.0699 15.4712 9.96252 15.2234 9.77916C14.9775 9.59732 14.7893 9.34857 14.6812 9.06272L12.5355 3.65946C12.5327 3.6524 12.53 3.64531 12.5274 3.63818C12.5253 3.63253 12.5216 3.62765 12.5167 3.6242C12.5117 3.62075 12.5059 3.6189 12.4999 3.6189C12.4939 3.6189 12.488 3.62075 12.4831 3.6242C12.4781 3.62765 12.4744 3.63253 12.4723 3.63818C12.4697 3.64531 12.467 3.6524 12.4642 3.65946L10.3185 9.06272C10.2104 9.34857 10.0222 9.59732 9.77638 9.77916C9.5285 9.96252 9.23272 10.0699 8.92498 10.0884L3.16572 10.4593C3.16564 10.4593 3.16581 10.4593 3.16572 10.4593C3.15435 10.4601 3.14965 10.462 3.14956 10.4621C3.14921 10.4622 3.14892 10.4623 3.14792 10.4632C3.14508 10.4655 3.13547 10.4757 3.12899 10.4967C3.1225 10.5176 3.12347 10.5358 3.12625 10.5463C3.12747 10.551 3.12902 10.5543 3.13084 10.5572C3.13248 10.5598 3.13635 10.5653 3.14549 10.5728L3.14675 10.5739L7.55825 14.2534C7.55876 14.2538 7.55927 14.2543 7.55978 14.2547C7.79584 14.4503 7.97196 14.7086 8.06793 14.9998C8.16411 15.2917 8.17588 15.6048 8.10187 15.903L8.10086 15.907L6.78218 21.1036C6.75395 21.2141 6.79289 21.2997 6.86425 21.3539C6.90077 21.3817 6.93766 21.3936 6.96682 21.3956C6.99093 21.3973 7.02431 21.3938 7.07066 21.3643L11.651 18.4638C11.6514 18.4636 11.6518 18.4633 11.6522 18.463C11.9057 18.3022 12.1997 18.2168 12.4999 18.2168C12.8004 18.2168 13.0951 18.3027 13.3488 18.4638Z" fill="black"/>
</svg>
